<svg width="746" height="733" viewBox="0 0 746 733" fill="none" xmlns="http://www.w3.org/2000/svg">
<g filter="url(#filter0_d_52_28)">
<path d="M522.398 376V345.202L519.092 349.262H509.058L521.644 334.24H530.054V376H522.398ZM542.792 376C541.516 376 540.318 375.671 539.196 375.014C538.075 374.318 537.108 373.409 536.296 372.288C535.523 371.128 535.001 369.833 534.73 368.402H567.848C568.042 368.402 568.196 368.344 568.312 368.228C568.467 368.073 568.544 367.899 568.544 367.706V359.992C568.544 359.799 568.467 359.644 568.312 359.528C568.196 359.373 568.042 359.296 567.848 359.296H542.792C541.284 359.296 539.931 358.929 538.732 358.194C537.534 357.459 536.567 356.493 535.832 355.294C535.098 354.057 534.73 352.703 534.73 351.234V342.244C534.73 340.736 535.098 339.383 535.832 338.184C536.567 336.985 537.534 336.038 538.732 335.342C539.931 334.607 541.284 334.24 542.792 334.24H568.138C569.608 334.24 570.942 334.607 572.14 335.342C573.339 336.038 574.306 336.985 575.04 338.184C575.775 339.383 576.142 340.736 576.142 342.244V367.996C576.142 369.465 575.775 370.799 575.04 371.998C574.306 373.197 573.339 374.163 572.14 374.898C570.942 375.633 569.608 376 568.138 376H542.792ZM543.082 351.64H568.544V342.534C568.544 342.341 568.467 342.186 568.312 342.07C568.196 341.915 568.042 341.838 567.848 341.838H543.082C542.889 341.838 542.715 341.915 542.56 342.07C542.444 342.186 542.386 342.341 542.386 342.534V350.944C542.386 351.137 542.444 351.311 542.56 351.466C542.715 351.582 542.889 351.64 543.082 351.64ZM590.998 376C589.528 376 588.194 375.633 586.996 374.898C585.797 374.163 584.83 373.197 584.096 371.998C583.361 370.799 582.994 369.465 582.994 367.996V342.244C582.994 340.736 583.361 339.383 584.096 338.184C584.83 336.985 585.797 336.038 586.996 335.342C588.194 334.607 589.528 334.24 590.998 334.24H617.736V341.838H591.288C591.094 341.838 590.92 341.915 590.766 342.07C590.65 342.186 590.592 342.341 590.592 342.534V350.132C590.592 350.325 590.65 350.499 590.766 350.654C590.92 350.77 591.094 350.828 591.288 350.828H616.344C617.813 350.828 619.147 351.195 620.346 351.93C621.583 352.626 622.55 353.593 623.246 354.83C623.98 356.029 624.348 357.363 624.348 358.832V367.996C624.348 369.465 623.98 370.799 623.246 371.998C622.511 373.197 621.544 374.163 620.346 374.898C619.147 375.633 617.813 376 616.344 376H590.998ZM591.288 368.402H616.054C616.247 368.402 616.402 368.344 616.518 368.228C616.672 368.073 616.75 367.899 616.75 367.706V359.18C616.75 358.987 616.672 358.832 616.518 358.716C616.402 358.561 616.247 358.484 616.054 358.484H590.592V367.706C590.592 367.899 590.65 368.073 590.766 368.228C590.92 368.344 591.094 368.402 591.288 368.402ZM638.402 376C637.126 376 635.927 375.671 634.806 375.014C633.684 374.318 632.718 373.409 631.906 372.288C631.132 371.128 630.61 369.833 630.34 368.402H663.458C663.651 368.402 663.806 368.344 663.922 368.228C664.076 368.073 664.154 367.899 664.154 367.706V359.992C664.154 359.799 664.076 359.644 663.922 359.528C663.806 359.373 663.651 359.296 663.458 359.296H638.402C636.894 359.296 635.54 358.929 634.342 358.194C633.143 357.459 632.176 356.493 631.442 355.294C630.707 354.057 630.34 352.703 630.34 351.234V342.244C630.34 340.736 630.707 339.383 631.442 338.184C632.176 336.985 633.143 336.038 634.342 335.342C635.54 334.607 636.894 334.24 638.402 334.24H663.748C665.217 334.24 666.551 334.607 667.75 335.342C668.948 336.038 669.915 336.985 670.65 338.184C671.384 339.383 671.752 340.736 671.752 342.244V367.996C671.752 369.465 671.384 370.799 670.65 371.998C669.915 373.197 668.948 374.163 667.75 374.898C666.551 375.633 665.217 376 663.748 376H638.402ZM638.692 351.64H664.154V342.534C664.154 342.341 664.076 342.186 663.922 342.07C663.806 341.915 663.651 341.838 663.458 341.838H638.692C638.498 341.838 638.324 341.915 638.17 342.07C638.054 342.186 637.996 342.341 637.996 342.534V350.944C637.996 351.137 638.054 351.311 638.17 351.466C638.324 351.582 638.498 351.64 638.692 351.64Z" fill="white"/>
</g>
<g filter="url(#filter1_d_52_28)">
<circle cx="592" cy="354" r="105" stroke="#FF1F4C" stroke-width="4" shape-rendering="crispEdges"/>
</g>
<g filter="url(#filter2_d_52_28)">
<circle cx="592" cy="354" r="116.5" stroke="url(#paint0_linear_52_28)" shape-rendering="crispEdges"/>
</g>
<g filter="url(#filter3_d_52_28)">
<circle cx="591.5" cy="353.5" r="134" stroke="#00E5FF" shape-rendering="crispEdges"/>
</g>
<g filter="url(#filter4_d_52_28)">
<circle cx="155" cy="354" r="105" stroke="#FF1F4C" stroke-width="4" shape-rendering="crispEdges"/>
</g>
<g filter="url(#filter5_d_52_28)">
<circle cx="155" cy="354" r="116.5" stroke="url(#paint1_linear_52_28)" shape-rendering="crispEdges"/>
</g>
<g filter="url(#filter6_d_52_28)">
<circle cx="154.5" cy="353.5" r="134" stroke="#00E5FF" shape-rendering="crispEdges"/>
</g>
<g filter="url(#filter7_d_52_28)">
<circle cx="375.87" cy="119.87" r="77.1561" stroke="#FF1F4C" stroke-width="4" shape-rendering="crispEdges"/>
</g>
<g filter="url(#filter8_d_52_28)">
<circle cx="375.87" cy="119.87" r="86.0539" stroke="url(#paint2_linear_52_28)" shape-rendering="crispEdges"/>
</g>
<g filter="url(#filter9_d_52_28)">
<circle cx="375.5" cy="119.5" r="99" stroke="#00E5FF" shape-rendering="crispEdges"/>
</g>
<g filter="url(#filter10_d_52_28)">
<circle cx="375.87" cy="613.87" r="77.1561" stroke="#FF1F4C" stroke-width="4" shape-rendering="crispEdges"/>
</g>
<g filter="url(#filter11_d_52_28)">
<circle cx="375.87" cy="613.87" r="86.0539" stroke="url(#paint3_linear_52_28)" shape-rendering="crispEdges"/>
</g>
<g filter="url(#filter12_d_52_28)">
<circle cx="375.5" cy="613.5" r="99" stroke="#00E5FF" shape-rendering="crispEdges"/>
</g>
<defs>
<filter id="filter0_d_52_28" x="489.058" y="314.24" width="202.693" height="81.76" filterUnits="userSpaceOnUse" color-interpolation-filters="sRGB">
<feFlood flood-opacity="0" result="BackgroundImageFix"/>
<feColorMatrix in="SourceAlpha" type="matrix" values="0 0 0 0 0 0 0 0 0 0 0 0 0 0 0 0 0 0 127 0" result="hardAlpha"/>
<feOffset/>
<feGaussianBlur stdDeviation="10"/>
<feComposite in2="hardAlpha" operator="out"/>
<feColorMatrix type="matrix" values="0 0 0 0 0.960784 0 0 0 0 0.960784 0 0 0 0 0.960784 0 0 0 0.6 0"/>
<feBlend mode="normal" in2="BackgroundImageFix" result="effect1_dropShadow_52_28"/>
<feBlend mode="normal" in="SourceGraphic" in2="effect1_dropShadow_52_28" result="shape"/>
</filter>
<filter id="filter1_d_52_28" x="465" y="227" width="254" height="254" filterUnits="userSpaceOnUse" color-interpolation-filters="sRGB">
<feFlood flood-opacity="0" result="BackgroundImageFix"/>
<feColorMatrix in="SourceAlpha" type="matrix" values="0 0 0 0 0 0 0 0 0 0 0 0 0 0 0 0 0 0 127 0" result="hardAlpha"/>
<feOffset/>
<feGaussianBlur stdDeviation="10"/>
<feComposite in2="hardAlpha" operator="out"/>
<feColorMatrix type="matrix" values="0 0 0 0 1 0 0 0 0 0.121569 0 0 0 0 0.298039 0 0 0 1 0"/>
<feBlend mode="normal" in2="BackgroundImageFix" result="effect1_dropShadow_52_28"/>
<feBlend mode="normal" in="SourceGraphic" in2="effect1_dropShadow_52_28" result="shape"/>
</filter>
<filter id="filter2_d_52_28" x="455" y="217" width="274" height="274" filterUnits="userSpaceOnUse" color-interpolation-filters="sRGB">
<feFlood flood-opacity="0" result="BackgroundImageFix"/>
<feColorMatrix in="SourceAlpha" type="matrix" values="0 0 0 0 0 0 0 0 0 0 0 0 0 0 0 0 0 0 127 0" result="hardAlpha"/>
<feOffset/>
<feGaussianBlur stdDeviation="10"/>
<feComposite in2="hardAlpha" operator="out"/>
<feColorMatrix type="matrix" values="0 0 0 0 1 0 0 0 0 0.121569 0 0 0 0 0.298039 0 0 0 1 0"/>
<feBlend mode="normal" in2="BackgroundImageFix" result="effect1_dropShadow_52_28"/>
<feBlend mode="normal" in="SourceGraphic" in2="effect1_dropShadow_52_28" result="shape"/>
</filter>
<filter id="filter3_d_52_28" x="437" y="199" width="309" height="309" filterUnits="userSpaceOnUse" color-interpolation-filters="sRGB">
<feFlood flood-opacity="0" result="BackgroundImageFix"/>
<feColorMatrix in="SourceAlpha" type="matrix" values="0 0 0 0 0 0 0 0 0 0 0 0 0 0 0 0 0 0 127 0" result="hardAlpha"/>
<feOffset/>
<feGaussianBlur stdDeviation="10"/>
<feComposite in2="hardAlpha" operator="out"/>
<feColorMatrix type="matrix" values="0 0 0 0 0 0 0 0 0 0.898039 0 0 0 0 1 0 0 0 1 0"/>
<feBlend mode="normal" in2="BackgroundImageFix" result="effect1_dropShadow_52_28"/>
<feBlend mode="normal" in="SourceGraphic" in2="effect1_dropShadow_52_28" result="shape"/>
</filter>
<filter id="filter4_d_52_28" x="28" y="227" width="254" height="254" filterUnits="userSpaceOnUse" color-interpolation-filters="sRGB">
<feFlood flood-opacity="0" result="BackgroundImageFix"/>
<feColorMatrix in="SourceAlpha" type="matrix" values="0 0 0 0 0 0 0 0 0 0 0 0 0 0 0 0 0 0 127 0" result="hardAlpha"/>
<feOffset/>
<feGaussianBlur stdDeviation="10"/>
<feComposite in2="hardAlpha" operator="out"/>
<feColorMatrix type="matrix" values="0 0 0 0 1 0 0 0 0 0.121569 0 0 0 0 0.298039 0 0 0 1 0"/>
<feBlend mode="normal" in2="BackgroundImageFix" result="effect1_dropShadow_52_28"/>
<feBlend mode="normal" in="SourceGraphic" in2="effect1_dropShadow_52_28" result="shape"/>
</filter>
<filter id="filter5_d_52_28" x="18" y="217" width="274" height="274" filterUnits="userSpaceOnUse" color-interpolation-filters="sRGB">
<feFlood flood-opacity="0" result="BackgroundImageFix"/>
<feColorMatrix in="SourceAlpha" type="matrix" values="0 0 0 0 0 0 0 0 0 0 0 0 0 0 0 0 0 0 127 0" result="hardAlpha"/>
<feOffset/>
<feGaussianBlur stdDeviation="10"/>
<feComposite in2="hardAlpha" operator="out"/>
<feColorMatrix type="matrix" values="0 0 0 0 1 0 0 0 0 0.121569 0 0 0 0 0.298039 0 0 0 1 0"/>
<feBlend mode="normal" in2="BackgroundImageFix" result="effect1_dropShadow_52_28"/>
<feBlend mode="normal" in="SourceGraphic" in2="effect1_dropShadow_52_28" result="shape"/>
</filter>
<filter id="filter6_d_52_28" x="0" y="199" width="309" height="309" filterUnits="userSpaceOnUse" color-interpolation-filters="sRGB">
<feFlood flood-opacity="0" result="BackgroundImageFix"/>
<feColorMatrix in="SourceAlpha" type="matrix" values="0 0 0 0 0 0 0 0 0 0 0 0 0 0 0 0 0 0 127 0" result="hardAlpha"/>
<feOffset/>
<feGaussianBlur stdDeviation="10"/>
<feComposite in2="hardAlpha" operator="out"/>
<feColorMatrix type="matrix" values="0 0 0 0 0 0 0 0 0 0.898039 0 0 0 0 1 0 0 0 1 0"/>
<feBlend mode="normal" in2="BackgroundImageFix" result="effect1_dropShadow_52_28"/>
<feBlend mode="normal" in="SourceGraphic" in2="effect1_dropShadow_52_28" result="shape"/>
</filter>
<filter id="filter7_d_52_28" x="276.714" y="20.7137" width="198.312" height="198.312" filterUnits="userSpaceOnUse" color-interpolation-filters="sRGB">
<feFlood flood-opacity="0" result="BackgroundImageFix"/>
<feColorMatrix in="SourceAlpha" type="matrix" values="0 0 0 0 0 0 0 0 0 0 0 0 0 0 0 0 0 0 127 0" result="hardAlpha"/>
<feOffset/>
<feGaussianBlur stdDeviation="10"/>
<feComposite in2="hardAlpha" operator="out"/>
<feColorMatrix type="matrix" values="0 0 0 0 1 0 0 0 0 0.121569 0 0 0 0 0.298039 0 0 0 1 0"/>
<feBlend mode="normal" in2="BackgroundImageFix" result="effect1_dropShadow_52_28"/>
<feBlend mode="normal" in="SourceGraphic" in2="effect1_dropShadow_52_28" result="shape"/>
</filter>
<filter id="filter8_d_52_28" x="269.316" y="13.316" width="213.108" height="213.108" filterUnits="userSpaceOnUse" color-interpolation-filters="sRGB">
<feFlood flood-opacity="0" result="BackgroundImageFix"/>
<feColorMatrix in="SourceAlpha" type="matrix" values="0 0 0 0 0 0 0 0 0 0 0 0 0 0 0 0 0 0 127 0" result="hardAlpha"/>
<feOffset/>
<feGaussianBlur stdDeviation="10"/>
<feComposite in2="hardAlpha" operator="out"/>
<feColorMatrix type="matrix" values="0 0 0 0 1 0 0 0 0 0.121569 0 0 0 0 0.298039 0 0 0 1 0"/>
<feBlend mode="normal" in2="BackgroundImageFix" result="effect1_dropShadow_52_28"/>
<feBlend mode="normal" in="SourceGraphic" in2="effect1_dropShadow_52_28" result="shape"/>
</filter>
<filter id="filter9_d_52_28" x="256" y="0" width="239" height="239" filterUnits="userSpaceOnUse" color-interpolation-filters="sRGB">
<feFlood flood-opacity="0" result="BackgroundImageFix"/>
<feColorMatrix in="SourceAlpha" type="matrix" values="0 0 0 0 0 0 0 0 0 0 0 0 0 0 0 0 0 0 127 0" result="hardAlpha"/>
<feOffset/>
<feGaussianBlur stdDeviation="10"/>
<feComposite in2="hardAlpha" operator="out"/>
<feColorMatrix type="matrix" values="0 0 0 0 0 0 0 0 0 0.898039 0 0 0 0 1 0 0 0 1 0"/>
<feBlend mode="normal" in2="BackgroundImageFix" result="effect1_dropShadow_52_28"/>
<feBlend mode="normal" in="SourceGraphic" in2="effect1_dropShadow_52_28" result="shape"/>
</filter>
<filter id="filter10_d_52_28" x="276.714" y="514.714" width="198.312" height="198.312" filterUnits="userSpaceOnUse" color-interpolation-filters="sRGB">
<feFlood flood-opacity="0" result="BackgroundImageFix"/>
<feColorMatrix in="SourceAlpha" type="matrix" values="0 0 0 0 0 0 0 0 0 0 0 0 0 0 0 0 0 0 127 0" result="hardAlpha"/>
<feOffset/>
<feGaussianBlur stdDeviation="10"/>
<feComposite in2="hardAlpha" operator="out"/>
<feColorMatrix type="matrix" values="0 0 0 0 1 0 0 0 0 0.121569 0 0 0 0 0.298039 0 0 0 1 0"/>
<feBlend mode="normal" in2="BackgroundImageFix" result="effect1_dropShadow_52_28"/>
<feBlend mode="normal" in="SourceGraphic" in2="effect1_dropShadow_52_28" result="shape"/>
</filter>
<filter id="filter11_d_52_28" x="269.316" y="507.316" width="213.108" height="213.108" filterUnits="userSpaceOnUse" color-interpolation-filters="sRGB">
<feFlood flood-opacity="0" result="BackgroundImageFix"/>
<feColorMatrix in="SourceAlpha" type="matrix" values="0 0 0 0 0 0 0 0 0 0 0 0 0 0 0 0 0 0 127 0" result="hardAlpha"/>
<feOffset/>
<feGaussianBlur stdDeviation="10"/>
<feComposite in2="hardAlpha" operator="out"/>
<feColorMatrix type="matrix" values="0 0 0 0 1 0 0 0 0 0.121569 0 0 0 0 0.298039 0 0 0 1 0"/>
<feBlend mode="normal" in2="BackgroundImageFix" result="effect1_dropShadow_52_28"/>
<feBlend mode="normal" in="SourceGraphic" in2="effect1_dropShadow_52_28" result="shape"/>
</filter>
<filter id="filter12_d_52_28" x="256" y="494" width="239" height="239" filterUnits="userSpaceOnUse" color-interpolation-filters="sRGB">
<feFlood flood-opacity="0" result="BackgroundImageFix"/>
<feColorMatrix in="SourceAlpha" type="matrix" values="0 0 0 0 0 0 0 0 0 0 0 0 0 0 0 0 0 0 127 0" result="hardAlpha"/>
<feOffset/>
<feGaussianBlur stdDeviation="10"/>
<feComposite in2="hardAlpha" operator="out"/>
<feColorMatrix type="matrix" values="0 0 0 0 0 0 0 0 0 0.898039 0 0 0 0 1 0 0 0 1 0"/>
<feBlend mode="normal" in2="BackgroundImageFix" result="effect1_dropShadow_52_28"/>
<feBlend mode="normal" in="SourceGraphic" in2="effect1_dropShadow_52_28" result="shape"/>
</filter>
<linearGradient id="paint0_linear_52_28" x1="475" y1="334" x2="726.5" y2="326" gradientUnits="userSpaceOnUse">
<stop stop-color="#FF1F4C"/>
<stop offset="1" stop-color="#00E5FF"/>
</linearGradient>
<linearGradient id="paint1_linear_52_28" x1="38" y1="334" x2="289.5" y2="326" gradientUnits="userSpaceOnUse">
<stop stop-color="#FF1F4C"/>
<stop offset="1" stop-color="#00E5FF"/>
</linearGradient>
<linearGradient id="paint2_linear_52_28" x1="289.316" y1="105.074" x2="475.37" y2="99.1562" gradientUnits="userSpaceOnUse">
<stop stop-color="#FF1F4C"/>
<stop offset="1" stop-color="#00E5FF"/>
</linearGradient>
<linearGradient id="paint3_linear_52_28" x1="289.316" y1="599.074" x2="475.37" y2="593.156" gradientUnits="userSpaceOnUse">
<stop stop-color="#FF1F4C"/>
<stop offset="1" stop-color="#00E5FF"/>
</linearGradient>
</defs>
</svg>
