<svg width="746" height="733" viewBox="0 0 746 733" fill="none" xmlns="http://www.w3.org/2000/svg">
<g filter="url(#filter0_d_52_28)">
<path d="M522.398 376V345.202L519.092 349.262H509.058L521.644 334.24H530.054V376H522.398ZM542.792 376C541.516 376 540.318 375.671 539.196 375.014C538.075 374.318 537.108 373.409 536.296 372.288C535.523 371.128 535.001 369.833 534.73 368.402H567.848C568.042 368.402 568.196 368.344 568.312 368.228C568.467 368.073 568.544 367.899 568.544 367.706V359.992C568.544 359.799 568.467 359.644 568.312 359.528C568.196 359.373 568.042 359.296 567.848 359.296H542.792C541.284 359.296 539.931 358.929 538.732 358.194C537.534 357.459 536.567 356.493 535.832 355.294C535.098 354.057 534.73 352.703 534.73 351.234V342.244C534.73 340.736 535.098 339.383 535.832 338.184C536.567 336.985 537.534 336.038 538.732 335.342C539.931 334.607 541.284 334.24 542.792 334.24H568.138C569.608 334.24 570.942 334.607 572.14 335.342C573.339 336.038 574.306 336.985 575.04 338.184C575.775 339.383 576.142 340.736 576.142 342.244V367.996C576.142 369.465 575.775 370.799 575.04 371.998C574.306 373.197 573.339 374.163 572.14 374.898C570.942 375.633 569.608 376 568.138 376H542.792ZM543.082 351.64H568.544V342.534C568.544 342.341 568.467 342.186 568.312 342.07C568.196 341.915 568.042 341.838 567.848 341.838H543.082C542.889 341.838 542.715 341.915 542.56 342.07C542.444 342.186 542.386 342.341 542.386 342.534V350.944C542.386 351.137 542.444 351.311 542.56 351.466C542.715 351.582 542.889 351.64 543.082 351.64ZM590.824 376C589.548 376 588.349 375.671 587.228 375.014C586.106 374.318 585.14 373.409 584.328 372.288C583.554 371.128 583.032 369.833 582.762 368.402H615.88C616.073 368.402 616.228 368.344 616.344 368.228C616.498 368.073 616.576 367.899 616.576 367.706V359.992C616.576 359.799 616.498 359.644 616.344 359.528C616.228 359.373 616.073 359.296 615.88 359.296H590.824C589.316 359.296 587.962 358.929 586.764 358.194C585.565 357.459 584.598 356.493 583.864 355.294C583.129 354.057 582.762 352.703 582.762 351.234V342.244C582.762 340.736 583.129 339.383 583.864 338.184C584.598 336.985 585.565 336.038 586.764 335.342C587.962 334.607 589.316 334.24 590.824 334.24H616.17C617.639 334.24 618.973 334.607 620.172 335.342C621.37 336.038 622.337 336.985 623.072 338.184C623.806 339.383 624.174 340.736 624.174 342.244V367.996C624.174 369.465 623.806 370.799 623.072 371.998C622.337 373.197 621.37 374.163 620.172 374.898C618.973 375.633 617.639 376 616.17 376H590.824ZM591.114 351.64H616.576V342.534C616.576 342.341 616.498 342.186 616.344 342.07C616.228 341.915 616.073 341.838 615.88 341.838H591.114C590.92 341.838 590.746 341.915 590.592 342.07C590.476 342.186 590.418 342.341 590.418 342.534V350.944C590.418 351.137 590.476 351.311 590.592 351.466C590.746 351.582 590.92 351.64 591.114 351.64ZM654.341 376V365.502H628.067V358.368L654.805 334.24H661.939V357.846H667.797V365.502H661.939V376H654.341ZM639.899 357.846H654.341V345.782L639.899 357.846Z" fill="white"/>
</g>
<g filter="url(#filter1_d_52_28)">
<circle cx="592" cy="354" r="105" stroke="#FF1F4C" stroke-width="4" shape-rendering="crispEdges"/>
</g>
<g filter="url(#filter2_d_52_28)">
<circle cx="592" cy="354" r="116.5" stroke="url(#paint0_linear_52_28)" shape-rendering="crispEdges"/>
</g>
<g filter="url(#filter3_d_52_28)">
<circle cx="591.5" cy="353.5" r="134" stroke="#00E5FF" shape-rendering="crispEdges"/>
</g>
<g filter="url(#filter4_d_52_28)">
<circle cx="155" cy="354" r="105" stroke="#FF1F4C" stroke-width="4" shape-rendering="crispEdges"/>
</g>
<g filter="url(#filter5_d_52_28)">
<circle cx="155" cy="354" r="116.5" stroke="url(#paint1_linear_52_28)" shape-rendering="crispEdges"/>
</g>
<g filter="url(#filter6_d_52_28)">
<circle cx="154.5" cy="353.5" r="134" stroke="#00E5FF" shape-rendering="crispEdges"/>
</g>
<g filter="url(#filter7_d_52_28)">
<circle cx="375.87" cy="119.87" r="77.1561" stroke="#FF1F4C" stroke-width="4" shape-rendering="crispEdges"/>
</g>
<g filter="url(#filter8_d_52_28)">
<circle cx="375.87" cy="119.87" r="86.0539" stroke="url(#paint2_linear_52_28)" shape-rendering="crispEdges"/>
</g>
<g filter="url(#filter9_d_52_28)">
<circle cx="375.5" cy="119.5" r="99" stroke="#00E5FF" shape-rendering="crispEdges"/>
</g>
<g filter="url(#filter10_d_52_28)">
<circle cx="375.87" cy="613.87" r="77.1561" stroke="#FF1F4C" stroke-width="4" shape-rendering="crispEdges"/>
</g>
<g filter="url(#filter11_d_52_28)">
<circle cx="375.87" cy="613.87" r="86.0539" stroke="url(#paint3_linear_52_28)" shape-rendering="crispEdges"/>
</g>
<g filter="url(#filter12_d_52_28)">
<circle cx="375.5" cy="613.5" r="99" stroke="#00E5FF" shape-rendering="crispEdges"/>
</g>
<defs>
<filter id="filter0_d_52_28" x="489.058" y="314.24" width="198.739" height="81.76" filterUnits="userSpaceOnUse" color-interpolation-filters="sRGB">
<feFlood flood-opacity="0" result="BackgroundImageFix"/>
<feColorMatrix in="SourceAlpha" type="matrix" values="0 0 0 0 0 0 0 0 0 0 0 0 0 0 0 0 0 0 127 0" result="hardAlpha"/>
<feOffset/>
<feGaussianBlur stdDeviation="10"/>
<feComposite in2="hardAlpha" operator="out"/>
<feColorMatrix type="matrix" values="0 0 0 0 0.960784 0 0 0 0 0.960784 0 0 0 0 0.960784 0 0 0 0.6 0"/>
<feBlend mode="normal" in2="BackgroundImageFix" result="effect1_dropShadow_52_28"/>
<feBlend mode="normal" in="SourceGraphic" in2="effect1_dropShadow_52_28" result="shape"/>
</filter>
<filter id="filter1_d_52_28" x="465" y="227" width="254" height="254" filterUnits="userSpaceOnUse" color-interpolation-filters="sRGB">
<feFlood flood-opacity="0" result="BackgroundImageFix"/>
<feColorMatrix in="SourceAlpha" type="matrix" values="0 0 0 0 0 0 0 0 0 0 0 0 0 0 0 0 0 0 127 0" result="hardAlpha"/>
<feOffset/>
<feGaussianBlur stdDeviation="10"/>
<feComposite in2="hardAlpha" operator="out"/>
<feColorMatrix type="matrix" values="0 0 0 0 1 0 0 0 0 0.121569 0 0 0 0 0.298039 0 0 0 1 0"/>
<feBlend mode="normal" in2="BackgroundImageFix" result="effect1_dropShadow_52_28"/>
<feBlend mode="normal" in="SourceGraphic" in2="effect1_dropShadow_52_28" result="shape"/>
</filter>
<filter id="filter2_d_52_28" x="455" y="217" width="274" height="274" filterUnits="userSpaceOnUse" color-interpolation-filters="sRGB">
<feFlood flood-opacity="0" result="BackgroundImageFix"/>
<feColorMatrix in="SourceAlpha" type="matrix" values="0 0 0 0 0 0 0 0 0 0 0 0 0 0 0 0 0 0 127 0" result="hardAlpha"/>
<feOffset/>
<feGaussianBlur stdDeviation="10"/>
<feComposite in2="hardAlpha" operator="out"/>
<feColorMatrix type="matrix" values="0 0 0 0 1 0 0 0 0 0.121569 0 0 0 0 0.298039 0 0 0 1 0"/>
<feBlend mode="normal" in2="BackgroundImageFix" result="effect1_dropShadow_52_28"/>
<feBlend mode="normal" in="SourceGraphic" in2="effect1_dropShadow_52_28" result="shape"/>
</filter>
<filter id="filter3_d_52_28" x="437" y="199" width="309" height="309" filterUnits="userSpaceOnUse" color-interpolation-filters="sRGB">
<feFlood flood-opacity="0" result="BackgroundImageFix"/>
<feColorMatrix in="SourceAlpha" type="matrix" values="0 0 0 0 0 0 0 0 0 0 0 0 0 0 0 0 0 0 127 0" result="hardAlpha"/>
<feOffset/>
<feGaussianBlur stdDeviation="10"/>
<feComposite in2="hardAlpha" operator="out"/>
<feColorMatrix type="matrix" values="0 0 0 0 0 0 0 0 0 0.898039 0 0 0 0 1 0 0 0 1 0"/>
<feBlend mode="normal" in2="BackgroundImageFix" result="effect1_dropShadow_52_28"/>
<feBlend mode="normal" in="SourceGraphic" in2="effect1_dropShadow_52_28" result="shape"/>
</filter>
<filter id="filter4_d_52_28" x="28" y="227" width="254" height="254" filterUnits="userSpaceOnUse" color-interpolation-filters="sRGB">
<feFlood flood-opacity="0" result="BackgroundImageFix"/>
<feColorMatrix in="SourceAlpha" type="matrix" values="0 0 0 0 0 0 0 0 0 0 0 0 0 0 0 0 0 0 127 0" result="hardAlpha"/>
<feOffset/>
<feGaussianBlur stdDeviation="10"/>
<feComposite in2="hardAlpha" operator="out"/>
<feColorMatrix type="matrix" values="0 0 0 0 1 0 0 0 0 0.121569 0 0 0 0 0.298039 0 0 0 1 0"/>
<feBlend mode="normal" in2="BackgroundImageFix" result="effect1_dropShadow_52_28"/>
<feBlend mode="normal" in="SourceGraphic" in2="effect1_dropShadow_52_28" result="shape"/>
</filter>
<filter id="filter5_d_52_28" x="18" y="217" width="274" height="274" filterUnits="userSpaceOnUse" color-interpolation-filters="sRGB">
<feFlood flood-opacity="0" result="BackgroundImageFix"/>
<feColorMatrix in="SourceAlpha" type="matrix" values="0 0 0 0 0 0 0 0 0 0 0 0 0 0 0 0 0 0 127 0" result="hardAlpha"/>
<feOffset/>
<feGaussianBlur stdDeviation="10"/>
<feComposite in2="hardAlpha" operator="out"/>
<feColorMatrix type="matrix" values="0 0 0 0 1 0 0 0 0 0.121569 0 0 0 0 0.298039 0 0 0 1 0"/>
<feBlend mode="normal" in2="BackgroundImageFix" result="effect1_dropShadow_52_28"/>
<feBlend mode="normal" in="SourceGraphic" in2="effect1_dropShadow_52_28" result="shape"/>
</filter>
<filter id="filter6_d_52_28" x="0" y="199" width="309" height="309" filterUnits="userSpaceOnUse" color-interpolation-filters="sRGB">
<feFlood flood-opacity="0" result="BackgroundImageFix"/>
<feColorMatrix in="SourceAlpha" type="matrix" values="0 0 0 0 0 0 0 0 0 0 0 0 0 0 0 0 0 0 127 0" result="hardAlpha"/>
<feOffset/>
<feGaussianBlur stdDeviation="10"/>
<feComposite in2="hardAlpha" operator="out"/>
<feColorMatrix type="matrix" values="0 0 0 0 0 0 0 0 0 0.898039 0 0 0 0 1 0 0 0 1 0"/>
<feBlend mode="normal" in2="BackgroundImageFix" result="effect1_dropShadow_52_28"/>
<feBlend mode="normal" in="SourceGraphic" in2="effect1_dropShadow_52_28" result="shape"/>
</filter>
<filter id="filter7_d_52_28" x="276.714" y="20.7137" width="198.312" height="198.312" filterUnits="userSpaceOnUse" color-interpolation-filters="sRGB">
<feFlood flood-opacity="0" result="BackgroundImageFix"/>
<feColorMatrix in="SourceAlpha" type="matrix" values="0 0 0 0 0 0 0 0 0 0 0 0 0 0 0 0 0 0 127 0" result="hardAlpha"/>
<feOffset/>
<feGaussianBlur stdDeviation="10"/>
<feComposite in2="hardAlpha" operator="out"/>
<feColorMatrix type="matrix" values="0 0 0 0 1 0 0 0 0 0.121569 0 0 0 0 0.298039 0 0 0 1 0"/>
<feBlend mode="normal" in2="BackgroundImageFix" result="effect1_dropShadow_52_28"/>
<feBlend mode="normal" in="SourceGraphic" in2="effect1_dropShadow_52_28" result="shape"/>
</filter>
<filter id="filter8_d_52_28" x="269.316" y="13.316" width="213.108" height="213.108" filterUnits="userSpaceOnUse" color-interpolation-filters="sRGB">
<feFlood flood-opacity="0" result="BackgroundImageFix"/>
<feColorMatrix in="SourceAlpha" type="matrix" values="0 0 0 0 0 0 0 0 0 0 0 0 0 0 0 0 0 0 127 0" result="hardAlpha"/>
<feOffset/>
<feGaussianBlur stdDeviation="10"/>
<feComposite in2="hardAlpha" operator="out"/>
<feColorMatrix type="matrix" values="0 0 0 0 1 0 0 0 0 0.121569 0 0 0 0 0.298039 0 0 0 1 0"/>
<feBlend mode="normal" in2="BackgroundImageFix" result="effect1_dropShadow_52_28"/>
<feBlend mode="normal" in="SourceGraphic" in2="effect1_dropShadow_52_28" result="shape"/>
</filter>
<filter id="filter9_d_52_28" x="256" y="0" width="239" height="239" filterUnits="userSpaceOnUse" color-interpolation-filters="sRGB">
<feFlood flood-opacity="0" result="BackgroundImageFix"/>
<feColorMatrix in="SourceAlpha" type="matrix" values="0 0 0 0 0 0 0 0 0 0 0 0 0 0 0 0 0 0 127 0" result="hardAlpha"/>
<feOffset/>
<feGaussianBlur stdDeviation="10"/>
<feComposite in2="hardAlpha" operator="out"/>
<feColorMatrix type="matrix" values="0 0 0 0 0 0 0 0 0 0.898039 0 0 0 0 1 0 0 0 1 0"/>
<feBlend mode="normal" in2="BackgroundImageFix" result="effect1_dropShadow_52_28"/>
<feBlend mode="normal" in="SourceGraphic" in2="effect1_dropShadow_52_28" result="shape"/>
</filter>
<filter id="filter10_d_52_28" x="276.714" y="514.714" width="198.312" height="198.312" filterUnits="userSpaceOnUse" color-interpolation-filters="sRGB">
<feFlood flood-opacity="0" result="BackgroundImageFix"/>
<feColorMatrix in="SourceAlpha" type="matrix" values="0 0 0 0 0 0 0 0 0 0 0 0 0 0 0 0 0 0 127 0" result="hardAlpha"/>
<feOffset/>
<feGaussianBlur stdDeviation="10"/>
<feComposite in2="hardAlpha" operator="out"/>
<feColorMatrix type="matrix" values="0 0 0 0 1 0 0 0 0 0.121569 0 0 0 0 0.298039 0 0 0 1 0"/>
<feBlend mode="normal" in2="BackgroundImageFix" result="effect1_dropShadow_52_28"/>
<feBlend mode="normal" in="SourceGraphic" in2="effect1_dropShadow_52_28" result="shape"/>
</filter>
<filter id="filter11_d_52_28" x="269.316" y="507.316" width="213.108" height="213.108" filterUnits="userSpaceOnUse" color-interpolation-filters="sRGB">
<feFlood flood-opacity="0" result="BackgroundImageFix"/>
<feColorMatrix in="SourceAlpha" type="matrix" values="0 0 0 0 0 0 0 0 0 0 0 0 0 0 0 0 0 0 127 0" result="hardAlpha"/>
<feOffset/>
<feGaussianBlur stdDeviation="10"/>
<feComposite in2="hardAlpha" operator="out"/>
<feColorMatrix type="matrix" values="0 0 0 0 1 0 0 0 0 0.121569 0 0 0 0 0.298039 0 0 0 1 0"/>
<feBlend mode="normal" in2="BackgroundImageFix" result="effect1_dropShadow_52_28"/>
<feBlend mode="normal" in="SourceGraphic" in2="effect1_dropShadow_52_28" result="shape"/>
</filter>
<filter id="filter12_d_52_28" x="256" y="494" width="239" height="239" filterUnits="userSpaceOnUse" color-interpolation-filters="sRGB">
<feFlood flood-opacity="0" result="BackgroundImageFix"/>
<feColorMatrix in="SourceAlpha" type="matrix" values="0 0 0 0 0 0 0 0 0 0 0 0 0 0 0 0 0 0 127 0" result="hardAlpha"/>
<feOffset/>
<feGaussianBlur stdDeviation="10"/>
<feComposite in2="hardAlpha" operator="out"/>
<feColorMatrix type="matrix" values="0 0 0 0 0 0 0 0 0 0.898039 0 0 0 0 1 0 0 0 1 0"/>
<feBlend mode="normal" in2="BackgroundImageFix" result="effect1_dropShadow_52_28"/>
<feBlend mode="normal" in="SourceGraphic" in2="effect1_dropShadow_52_28" result="shape"/>
</filter>
<linearGradient id="paint0_linear_52_28" x1="475" y1="334" x2="726.5" y2="326" gradientUnits="userSpaceOnUse">
<stop stop-color="#FF1F4C"/>
<stop offset="1" stop-color="#00E5FF"/>
</linearGradient>
<linearGradient id="paint1_linear_52_28" x1="38" y1="334" x2="289.5" y2="326" gradientUnits="userSpaceOnUse">
<stop stop-color="#FF1F4C"/>
<stop offset="1" stop-color="#00E5FF"/>
</linearGradient>
<linearGradient id="paint2_linear_52_28" x1="289.316" y1="105.074" x2="475.37" y2="99.1562" gradientUnits="userSpaceOnUse">
<stop stop-color="#FF1F4C"/>
<stop offset="1" stop-color="#00E5FF"/>
</linearGradient>
<linearGradient id="paint3_linear_52_28" x1="289.316" y1="599.074" x2="475.37" y2="593.156" gradientUnits="userSpaceOnUse">
<stop stop-color="#FF1F4C"/>
<stop offset="1" stop-color="#00E5FF"/>
</linearGradient>
</defs>
</svg>
